<svg width="259" height="40" viewBox="0 0 259 40" fill="none" xmlns="http://www.w3.org/2000/svg" class="h-4 w-[104px] shrink-0 xl:h-[72px] xl:w-40" aria-label="wayflyer logo" role="img"><g clip-path="url(#clip0_4627_1162_1)"><path d="M80.4373 31.0112H84.9035L92.6864 5.39326L100.337 31.0112H104.847L113.824 0H109.756L102.592 26.2022L94.8974 0H90.6964L82.9578 26.2472L75.8825 0H71.5931L80.4373 31.0112ZM164.147 10.8764H169.144V31.0112H172.77V10.8764H180.73V7.64045H172.77V5.8427C172.77 4 173.61 3.14607 175.423 3.14607H180.73V0H174.804C171.134 0 169.144 1.97753 169.144 5.4382V7.64045H164.147V10.8764ZM188.424 0H184.798V31.0112H188.424V0ZM118.688 14.0674C119.396 11.7753 121.562 10.2472 125.1 10.2472C129.036 10.2472 131.291 12.0449 131.291 15.5955V17.0787H125.1C118.334 17.0787 114.222 19.7753 114.222 24.4494C114.222 28.6292 117.494 31.5056 122.801 31.5056C126.648 31.5056 129.699 29.8876 131.424 27.191V31.0112H134.873V15.236C134.873 9.79775 131.07 7.14607 125.188 7.14607C119.307 7.14607 115.77 9.88764 114.929 14.0674H118.688ZM236.403 24.809C235.032 27.0562 232.556 28.4045 229.372 28.4045C224.508 28.4045 221.368 25.1685 221.059 20.3146H240.825V18.8764C240.825 11.9101 236.05 7.14607 229.328 7.14607C222.606 7.14607 217.344 12.0449 217.344 19.1461V19.4607C217.344 26.6067 222.341 31.5056 229.372 31.5056C234.502 31.5056 238.747 28.9438 240.427 24.809H236.403ZM0 31.0112H38.1181L57.4868 7.64045H42.496L24.3213 29.573L32.1926 7.64045H19.3686L11.4974 29.573V7.64045H0V31.0112ZM141.904 7.64045H137.791L147.918 30.8764L143.982 40H147.918L161.759 7.64045H157.868L149.996 26.6067L141.904 7.64045ZM245.69 13.0787V31.0112H249.316V13.573C249.316 11.7303 250.156 10.8764 251.969 10.8764H259V7.64045H251.35C247.68 7.64045 245.69 9.61798 245.69 13.0787ZM195.897 7.64045H191.785L201.911 30.8764L197.976 40H201.911L215.752 7.64045H211.861L203.99 26.6067L195.897 7.64045ZM229.24 10.2472C233.617 10.2472 236.536 12.9888 237.111 17.2584H221.147C221.722 12.9888 224.685 10.2472 229.24 10.2472ZM123.42 28.4494C119.838 28.4494 117.848 26.7416 117.848 24.3146C117.848 21.618 120.324 20.1348 125.365 20.1348H131.291V22.2022C131.291 25.7528 127.93 28.4494 123.42 28.4494Z" fill="#23232d"></path></g><defs><clipPath id="clip0_4627_1162_1"><rect width="259" height="40" fill="#23232d"></rect></clipPath></defs></svg>
